<?xml version="1.0" encoding="UTF-8"?>
<mxfile host="app.diagrams.net" modified="2024-01-01T00:00:00.000Z" agent="5.0" etag="xxx" version="22.1.16" type="device">
  <diagram name="Model Evaluation Pipeline" id="pipeline-diagram">
    <mxGraphModel dx="1422" dy="794" grid="1" gridSize="10" guides="1" tooltips="1" connect="1" arrows="1" fold="1" page="1" pageScale="1" pageWidth="1169" pageHeight="827" math="0" shadow="0">
      <root>
        <mxCell id="0" />
        <mxCell id="1" parent="0" />
        
        <!-- Title -->
        <mxCell id="title" value="Model Evaluation Pipeline" style="text;html=1;strokeColor=none;fillColor=none;align=center;verticalAlign=middle;whiteSpace=wrap;rounded=0;fontSize=24;fontStyle=1;" vertex="1" parent="1">
          <mxGeometry x="400" y="20" width="300" height="40" as="geometry" />
        </mxCell>
        
        <!-- Input Components -->
        <mxCell id="model_checkpoint" value="Model Checkpoint&#xa;(Hugging Face Format)" style="rounded=1;whiteSpace=wrap;html=1;fillColor=#dae8fc;strokeColor=#6c8ebf;fontSize=12;fontStyle=1;" vertex="1" parent="1">
          <mxGeometry x="50" y="100" width="150" height="60" as="geometry" />
        </mxCell>
        
        <mxCell id="benchmark_dataset" value="Benchmark Dataset&#xa;(JSON/JSONL)" style="rounded=1;whiteSpace=wrap;html=1;fillColor=#d5e8d4;strokeColor=#82b366;fontSize=12;fontStyle=1;" vertex="1" parent="1">
          <mxGeometry x="50" y="200" width="150" height="60" as="geometry" />
        </mxCell>
        
        <mxCell id="database_schema" value="Database Schema&#xa;(DDL Files)" style="rounded=1;whiteSpace=wrap;html=1;fillColor=#d5e8d4;strokeColor=#82b366;fontSize=12;fontStyle=1;" vertex="1" parent="1">
          <mxGeometry x="50" y="300" width="150" height="60" as="geometry" />
        </mxCell>
        
        <!-- Deployment Components -->
        <mxCell id="vllm_deployment" value="vLLM Deployment&#xa;(OpenAI-Compatible Endpoint)" style="rounded=1;whiteSpace=wrap;html=1;fillColor=#fff2cc;strokeColor=#d6b656;fontSize=12;fontStyle=1;" vertex="1" parent="1">
          <mxGeometry x="250" y="100" width="180" height="60" as="geometry" />
        </mxCell>
        
        <mxCell id="model_endpoint" value="Model Endpoint&#xa;(HTTP API)" style="rounded=1;whiteSpace=wrap;html=1;fillColor=#fff2cc;strokeColor=#d6b656;fontSize=12;fontStyle=1;" vertex="1" parent="1">
          <mxGeometry x="250" y="180" width="180" height="60" as="geometry" />
        </mxCell>
        
        <!-- Data Processing Components -->
        <mxCell id="data_processor" value="Data Processor&#xa;(Extract &amp; Format)" style="rounded=1;whiteSpace=wrap;html=1;fillColor=#e1d5e7;strokeColor=#9673a6;fontSize=12;fontStyle=1;" vertex="1" parent="1">
          <mxGeometry x="250" y="280" width="180" height="60" as="geometry" />
        </mxCell>
        
        <mxCell id="prompt_formatter" value="Prompt Formatter&#xa;(OpenAI Chat Format)" style="rounded=1;whiteSpace=wrap;html=1;fillColor=#e1d5e7;strokeColor=#9673a6;fontSize=12;fontStyle=1;" vertex="1" parent="1">
          <mxGeometry x="250" y="360" width="180" height="60" as="geometry" />
        </mxCell>
        
        <!-- Inference Components -->
        <mxCell id="model_inference" value="Model Inference&#xa;(HTTP POST)" style="rounded=1;whiteSpace=wrap;html=1;fillColor=#f8cecc;strokeColor=#b85450;fontSize=12;fontStyle=1;" vertex="1" parent="1">
          <mxGeometry x="480" y="180" width="150" height="60" as="geometry" />
        </mxCell>
        
        <mxCell id="model_responses" value="Model Responses&#xa;(SQL Queries)" style="rounded=1;whiteSpace=wrap;html=1;fillColor=#f8cecc;strokeColor=#b85450;fontSize=12;fontStyle=1;" vertex="1" parent="1">
          <mxGeometry x="480" y="280" width="150" height="60" as="geometry" />
        </mxCell>
        
        <!-- Database Components -->
        <mxCell id="benchmark_db" value="Benchmark Database&#xa;(SQLite/PostgreSQL)" style="shape=cylinder3;whiteSpace=wrap;html=1;boundedLbl=1;backgroundOutline=1;size=15;fillColor=#ffe6cc;strokeColor=#d79b00;fontSize=12;fontStyle=1;" vertex="1" parent="1">
          <mxGeometry x="680" y="200" width="150" height="80" as="geometry" />
        </mxCell>
        
        <!-- Evaluation Components -->
        <mxCell id="query_executor" value="Query Executor&#xa;(Multi-threaded)" style="rounded=1;whiteSpace=wrap;html=1;fillColor=#d5e8d4;strokeColor=#82b366;fontSize=12;fontStyle=1;" vertex="1" parent="1">
          <mxGeometry x="680" y="320" width="150" height="60" as="geometry" />
        </mxCell>
        
        <mxCell id="accuracy_calculator" value="Accuracy Calculator&#xa;(Metrics Computation)" style="rounded=1;whiteSpace=wrap;html=1;fillColor=#d5e8d4;strokeColor=#82b366;fontSize=12;fontStyle=1;" vertex="1" parent="1">
          <mxGeometry x="680" y="400" width="150" height="60" as="geometry" />
        </mxCell>
        
        <!-- Output Components -->
        <mxCell id="evaluation_results" value="Evaluation Results&#xa;(JSON/JSONL)" style="rounded=1;whiteSpace=wrap;html=1;fillColor=#dae8fc;strokeColor=#6c8ebf;fontSize=12;fontStyle=1;" vertex="1" parent="1">
          <mxGeometry x="880" y="320" width="150" height="60" as="geometry" />
        </mxCell>
        
        <mxCell id="metrics_summary" value="Metrics Summary&#xa;(Performance Stats)" style="rounded=1;whiteSpace=wrap;html=1;fillColor=#dae8fc;strokeColor=#6c8ebf;fontSize=12;fontStyle=1;" vertex="1" parent="1">
          <mxGeometry x="880" y="400" width="150" height="60" as="geometry" />
        </mxCell>
        
        <!-- Data Flow Arrows -->
        <!-- Model Checkpoint to vLLM -->
        <mxCell id="arrow1" value="Deploy via vLLM" style="edgeStyle=orthogonalEdgeStyle;rounded=0;orthogonalLoop=1;jettySize=auto;html=1;fontSize=10;fontStyle=2;strokeColor=#666666;" edge="1" parent="1" source="model_checkpoint" target="vllm_deployment">
          <mxGeometry relative="1" as="geometry" />
        </mxCell>
        
        <!-- vLLM to Model Endpoint -->
        <mxCell id="arrow2" value="Create Endpoint" style="edgeStyle=orthogonalEdgeStyle;rounded=0;orthogonalLoop=1;jettySize=auto;html=1;fontSize=10;fontStyle=2;strokeColor=#666666;" edge="1" parent="1" source="vllm_deployment" target="model_endpoint">
          <mxGeometry relative="1" as="geometry" />
        </mxCell>
        
        <!-- Benchmark Dataset to Data Processor -->
        <mxCell id="arrow3" value="Extract Queries" style="edgeStyle=orthogonalEdgeStyle;rounded=0;orthogonalLoop=1;jettySize=auto;html=1;fontSize=10;fontStyle=2;strokeColor=#666666;" edge="1" parent="1" source="benchmark_dataset" target="data_processor">
          <mxGeometry relative="1" as="geometry" />
        </mxCell>
        
        <!-- Database Schema to Data Processor -->
        <mxCell id="arrow4" value="Add Schema" style="edgeStyle=orthogonalEdgeStyle;rounded=0;orthogonalLoop=1;jettySize=auto;html=1;fontSize=10;fontStyle=2;strokeColor=#666666;" edge="1" parent="1" source="database_schema" target="data_processor">
          <mxGeometry relative="1" as="geometry" />
        </mxCell>
        
        <!-- Data Processor to Prompt Formatter -->
        <mxCell id="arrow5" value="Format Prompts" style="edgeStyle=orthogonalEdgeStyle;rounded=0;orthogonalLoop=1;jettySize=auto;html=1;fontSize=10;fontStyle=2;strokeColor=#666666;" edge="1" parent="1" source="data_processor" target="prompt_formatter">
          <mxGeometry relative="1" as="geometry" />
        </mxCell>
        
        <!-- Prompt Formatter to Model Inference -->
        <mxCell id="arrow6" value="HTTP POST" style="edgeStyle=orthogonalEdgeStyle;rounded=0;orthogonalLoop=1;jettySize=auto;html=1;fontSize=10;fontStyle=2;strokeColor=#666666;" edge="1" parent="1" source="prompt_formatter" target="model_inference">
          <mxGeometry relative="1" as="geometry" />
        </mxCell>
        
        <!-- Model Endpoint to Model Inference -->
        <mxCell id="arrow7" value="API Call" style="edgeStyle=orthogonalEdgeStyle;rounded=0;orthogonalLoop=1;jettySize=auto;html=1;fontSize=10;fontStyle=2;strokeColor=#666666;" edge="1" parent="1" source="model_endpoint" target="model_inference">
          <mxGeometry relative="1" as="geometry" />
        </mxCell>
        
        <!-- Model Inference to Model Responses -->
        <mxCell id="arrow8" value="Generate SQL" style="edgeStyle=orthogonalEdgeStyle;rounded=0;orthogonalLoop=1;jettySize=auto;html=1;fontSize=10;fontStyle=2;strokeColor=#666666;" edge="1" parent="1" source="model_inference" target="model_responses">
          <mxGeometry relative="1" as="geometry" />
        </mxCell>
        
        <!-- Model Responses to Benchmark DB -->
        <mxCell id="arrow9" value="Store Responses" style="edgeStyle=orthogonalEdgeStyle;rounded=0;orthogonalLoop=1;jettySize=auto;html=1;fontSize=10;fontStyle=2;strokeColor=#666666;" edge="1" parent="1" source="model_responses" target="benchmark_db">
          <mxGeometry relative="1" as="geometry" />
        </mxCell>
        
        <!-- Benchmark Dataset to Benchmark DB (Expected Answers) -->
        <mxCell id="arrow10" value="Expected Answers" style="edgeStyle=orthogonalEdgeStyle;rounded=0;orthogonalLoop=1;jettySize=auto;html=1;fontSize=10;fontStyle=2;strokeColor=#666666;" edge="1" parent="1" source="benchmark_dataset" target="benchmark_db">
          <mxGeometry relative="1" as="geometry">
            <Array as="points">
              <mxPoint x="200" y="240" />
              <mxPoint x="680" y="240" />
            </Array>
          </mxGeometry>
        </mxCell>
        
        <!-- Benchmark DB to Query Executor -->
        <mxCell id="arrow11" value="Execute Queries" style="edgeStyle=orthogonalEdgeStyle;rounded=0;orthogonalLoop=1;jettySize=auto;html=1;fontSize=10;fontStyle=2;strokeColor=#666666;" edge="1" parent="1" source="benchmark_db" target="query_executor">
          <mxGeometry relative="1" as="geometry" />
        </mxCell>
        
        <!-- Query Executor to Accuracy Calculator -->
        <mxCell id="arrow12" value="Compare Results" style="edgeStyle=orthogonalEdgeStyle;rounded=0;orthogonalLoop=1;jettySize=auto;html=1;fontSize=10;fontStyle=2;strokeColor=#666666;" edge="1" parent="1" source="query_executor" target="accuracy_calculator">
          <mxGeometry relative="1" as="geometry" />
        </mxCell>
        
        <!-- Accuracy Calculator to Evaluation Results -->
        <mxCell id="arrow13" value="Generate Results" style="edgeStyle=orthogonalEdgeStyle;rounded=0;orthogonalLoop=1;jettySize=auto;html=1;fontSize=10;fontStyle=2;strokeColor=#666666;" edge="1" parent="1" source="accuracy_calculator" target="evaluation_results">
          <mxGeometry relative="1" as="geometry" />
        </mxCell>
        
        <!-- Accuracy Calculator to Metrics Summary -->
        <mxCell id="arrow14" value="Calculate Metrics" style="edgeStyle=orthogonalEdgeStyle;rounded=0;orthogonalLoop=1;jettySize=auto;html=1;fontSize=10;fontStyle=2;strokeColor=#666666;" edge="1" parent="1" source="accuracy_calculator" target="metrics_summary">
          <mxGeometry relative="1" as="geometry" />
        </mxCell>
        
        <!-- Configuration Boxes -->
        <mxCell id="config_vllm" value="vLLM Config:&#xa;• max_seq_length: 4096&#xa;• batch_size: 8&#xa;• temperature: 0.0&#xa;• timeout: 300s" style="rounded=1;whiteSpace=wrap;html=1;fillColor=#f5f5f5;strokeColor=#666666;fontSize=10;align=left;verticalAlign=top;" vertex="1" parent="1">
          <mxGeometry x="50" y="400" width="200" height="80" as="geometry" />
        </mxCell>
        
        <mxCell id="config_eval" value="Evaluation Config:&#xa;• timeout: 60s&#xa;• num_workers: -1&#xa;• decimal_points: 2&#xa;• supported_dbs: sqlite, postgres" style="rounded=1;whiteSpace=wrap;html=1;fillColor=#f5f5f5;strokeColor=#666666;fontSize=10;align=left;verticalAlign=top;" vertex="1" parent="1">
          <mxGeometry x="50" y="500" width="200" height="80" as="geometry" />
        </mxCell>
        
        <mxCell id="config_prompt" value="Prompt Template:&#xa;• System: DDL + Instructions&#xa;• User: Question&#xa;• Stop: &lt;extra_id_1&gt;&#xa;• Current time: 2105-12-31" style="rounded=1;whiteSpace=wrap;html=1;fillColor=#f5f5f5;strokeColor=#666666;fontSize=10;align=left;verticalAlign=top;" vertex="1" parent="1">
          <mxGeometry x="50" y="600" width="200" height="80" as="geometry" />
        </mxCell>
        
        <!-- Metrics Box -->
        <mxCell id="metrics_box" value="Performance Metrics:&#xa;• Precision (Answer/Exec)&#xa;• Recall (Answer/Exec)&#xa;• F1 Score&#xa;• Exact Match&#xa;• Execution Success Rate&#xa;• Timeout/Error Rates" style="rounded=1;whiteSpace=wrap;html=1;fillColor=#fff2cc;strokeColor=#d6b656;fontSize=10;align=left;verticalAlign=top;" vertex="1" parent="1">
          <mxGeometry x="880" y="500" width="200" height="100" as="geometry" />
        </mxCell>
        
        <!-- Supported Datasets Box -->
        <mxCell id="datasets_box" value="Supported Datasets:&#xa;• EHRSQL (eICU, MIMIC-III, VinMec)&#xa;• MimicSQL (MIMIC-All)&#xa;• Custom Datasets" style="rounded=1;whiteSpace=wrap;html=1;fillColor=#e1d5e7;strokeColor=#9673a6;fontSize=10;align=left;verticalAlign=top;" vertex="1" parent="1">
          <mxGeometry x="300" y="500" width="200" height="80" as="geometry" />
        </mxCell>
        
        <!-- Supported Models Box -->
        <mxCell id="models_box" value="Supported Models:&#xa;• Base: Llama3-SQLCoder, Mistral-MiniTron&#xa;• Finetuned: Mistral-Text2SQL variants&#xa;• Custom: User-defined models" style="rounded=1;whiteSpace=wrap;html=1;fillColor=#dae8fc;strokeColor=#6c8ebf;fontSize=10;align=left;verticalAlign=top;" vertex="1" parent="1">
          <mxGeometry x="300" y="600" width="200" height="80" as="geometry" />
        </mxCell>
        
        <!-- Error Handling Box -->
        <mxCell id="error_box" value="Error Handling:&#xa;• Timeout: Retry (3x)&#xa;• Execution: Log &amp; Continue&#xa;• Database: Fallback to SQLite&#xa;• Error Markers: error_{tag}" style="rounded=1;whiteSpace=wrap;html=1;fillColor=#f8cecc;strokeColor=#b85450;fontSize=10;align=left;verticalAlign=top;" vertex="1" parent="1">
          <mxGeometry x="550" y="500" width="200" height="80" as="geometry" />
        </mxCell>
        
        <!-- Performance Monitoring Box -->
        <mxCell id="perf_box" value="Performance Monitoring:&#xa;• Total Tokens/Time&#xa;• Memory Usage&#xa;• Latencies&#xa;• Throughputs&#xa;• Peak Memory" style="rounded=1;whiteSpace=wrap;html=1;fillColor=#d5e8d4;strokeColor=#82b366;fontSize=10;align=left;verticalAlign=top;" vertex="1" parent="1">
          <mxGeometry x="550" y="600" width="200" height="80" as="geometry" />
        </mxCell>
        
      </root>
    </mxGraphModel>
  </diagram>
</mxfile> 